<svg width="20" height="20" viewBox="0 0 20 20" fill="none" xmlns="http://www.w3.org/2000/svg">
<path d="M15.5893 17.0405L10.8978 13.6319L18.7586 7.92063C18.9159 8.58589 18.9996 9.27928 18.9996 9.9919C18.9996 12.8441 17.6657 15.3903 15.5893 17.0405Z" fill="#FF5069"/>
<path d="M14.6762 17.6799C13.3128 18.5122 11.7119 18.9922 10.001 18.9922C8.16223 18.9922 6.45082 18.4375 5.02441 17.4872L6.81725 11.9699L14.6762 17.6799Z" fill="#FF5069"/>
<path d="M4.13388 16.8119C2.21624 15.1602 1 12.7155 1 9.99192C1 9.15502 1.11524 8.34463 1.32994 7.5753H7.13529L4.13388 16.8119Z" fill="#FF5069"/>
<path d="M1.6969 6.52013C3.01179 3.3867 6.0505 1.14917 9.61993 1L11.4135 6.52013H1.6969Z" fill="#FF5069"/>
<path d="M10.7365 1.02197C14.2749 1.30958 17.2408 3.65269 18.4356 6.85249L13.7395 10.2644L10.7365 1.02197Z" fill="#FF5069"/>
</svg>
