<svg width="20" height="20" viewBox="0 0 20 20" fill="none" xmlns="http://www.w3.org/2000/svg">
<path d="M9.66484 1C7.97178 1 6.59924 2.40656 6.59924 4.09966C6.59924 5.79275 7.97174 7.16525 9.66484 7.16525C11.3579 7.16525 12.7304 5.79275 12.7304 4.09966C12.7304 2.40656 11.3579 1 9.66484 1Z" fill="#FF5069"/>
<path d="M11.9488 11.5422C10.6171 11.5422 10.1616 13.1314 10.1571 13.1473C10.1557 13.1522 10.1505 13.1544 10.149 13.1592C10.149 13.1591 10.1492 13.1591 10.1492 13.1591C10.0833 13.3723 9.89016 13.52 9.6661 13.521C9.66558 13.521 9.66511 13.521 9.66409 13.521C9.43607 13.521 9.23548 13.3688 9.1726 13.1493C9.15414 13.0834 8.69958 11.5422 7.38035 11.5422C6.36898 11.5422 5.60657 12.3884 5.60657 13.5111C5.60657 14.8473 6.81155 16.1883 8.80838 17.8738C8.97882 18.0174 9.15411 18.1654 9.33385 18.3181C9.52433 18.4799 9.80432 18.4804 9.99486 18.3187C10.1745 18.1662 10.3495 18.0185 10.5193 17.8748C12.0385 16.5932 13.7226 14.9458 13.7226 13.511C13.7226 12.3884 12.9602 11.5422 11.9488 11.5422Z" fill="#FF5069"/>
<path d="M12.2697 7.21624C11.5647 7.81917 10.6654 8.18701 9.66399 8.18701C8.66256 8.18701 7.76332 7.81914 7.05823 7.21624C4.19701 7.50233 2 9.90712 2 12.8195V13.5348C2 15.1902 2.64377 16.7434 3.80873 17.9083C3.80873 17.9185 3.80873 17.9185 3.81895 17.9185C4.13573 18.2353 4.57513 18.4192 5.02475 18.4295C5.77187 18.4108 6.37624 17.8439 6.47577 17.1149C5.52332 16.1364 4.58409 14.8826 4.58409 13.511C4.58409 11.7656 5.91763 10.5202 7.37501 10.5202C7.376 10.5202 7.37675 10.5204 7.37777 10.5204C7.37845 10.5204 7.37906 10.5202 7.37978 10.5202C8.34145 10.5202 9.14498 11.0492 9.6645 11.823C10.1889 11.0418 10.9706 10.5202 11.9482 10.5202C11.9489 10.5202 11.9495 10.5204 11.9502 10.5204C11.9512 10.5204 11.952 10.5202 11.953 10.5202C13.5012 10.5202 14.7439 11.8482 14.7439 13.511C14.6958 13.6404 14.9512 14.9004 12.8509 17.1012C12.9447 17.8367 13.5515 18.4106 14.3033 18.4295C14.7529 18.4192 15.1923 18.2353 15.5091 17.9185C15.5193 17.9185 15.5193 17.9185 15.5193 17.9083C16.6842 16.7434 17.328 15.1902 17.328 13.5348V12.8195C17.328 9.90712 15.1309 7.50233 12.2697 7.21624Z" fill="#FF5069"/>
</svg>
