<svg width="20" height="20" viewBox="0 0 20 20" fill="none" xmlns="http://www.w3.org/2000/svg">
<path d="M7.85016 10.3435C8.37883 10.9347 8.90181 11.5117 9.41342 12.0688C7.88427 13.7969 5.66159 16.2754 4.94533 16.8723C3.53555 18.0433 1.74491 16.4573 2.96141 14.8883C3.46734 14.2346 5.26936 12.5633 7.85016 10.3435Z" fill="#FF5069"/>
<path d="M17.6396 6.16807L17.6368 6.17091C17.6241 6.18921 17.6099 6.20633 17.5942 6.22207C14.3738 9.43955 14.4193 9.50777 13.7286 9.70104C12.7821 9.96538 12.3899 9.48503 11.8158 9.69252C11.2615 9.18659 10.6874 8.66645 10.1019 8.14346C10.4031 7.51816 9.86027 7.12877 10.1303 6.1368C10.3292 5.44328 10.3918 5.4916 13.6292 2.25707C13.6914 2.18121 13.7688 2.11922 13.8564 2.07509C13.9441 2.03097 14.04 2.00568 14.138 2.00085C14.236 1.99603 14.3339 2.01177 14.4254 2.04708C14.517 2.08239 14.6001 2.13647 14.6695 2.20585C14.7389 2.27523 14.793 2.35836 14.8283 2.44991C14.8636 2.54145 14.8793 2.63937 14.8745 2.73737C14.8697 2.83537 14.8444 2.93127 14.8002 3.0189C14.7561 3.10654 14.6941 3.18396 14.6183 3.24619L12.6343 5.23295C12.5993 5.26481 12.571 5.30347 12.5513 5.34658C12.5316 5.38968 12.5208 5.43634 12.5197 5.48373C12.5185 5.53111 12.527 5.57824 12.5446 5.62225C12.5622 5.66625 12.5886 5.70623 12.6221 5.73974C12.6556 5.77326 12.6956 5.79962 12.7396 5.81723C12.7836 5.83484 12.8307 5.84333 12.8781 5.84219C12.9255 5.84104 12.9722 5.83029 13.0153 5.81058C13.0584 5.79087 13.097 5.76261 13.1289 5.72751L15.1157 3.74359C15.1779 3.66772 15.2554 3.60571 15.343 3.56154C15.4307 3.51738 15.5266 3.49204 15.6246 3.48715C15.7226 3.48226 15.8206 3.49793 15.9122 3.53315C16.0038 3.56838 16.0871 3.62237 16.1566 3.69168C16.2261 3.76098 16.2803 3.84405 16.3158 3.93556C16.3513 4.02707 16.3672 4.12499 16.3626 4.22303C16.358 4.32107 16.3329 4.41706 16.289 4.50483C16.2451 4.59261 16.1833 4.67023 16.1076 4.73271L14.1209 6.71947C14.0858 6.75133 14.0575 6.78999 14.0378 6.8331C14.0181 6.8762 14.0073 6.92286 14.0062 6.97025C14.005 7.01764 14.0135 7.06476 14.0311 7.10877C14.0488 7.15277 14.0751 7.19275 14.1086 7.22626C14.1422 7.25978 14.1821 7.28614 14.2261 7.30375C14.2701 7.32136 14.3173 7.32985 14.3647 7.32871C14.412 7.32757 14.4587 7.31681 14.5018 7.2971C14.5449 7.27739 14.5836 7.24913 14.6154 7.21403L16.6022 5.23011C16.6622 5.15637 16.7365 5.09562 16.8207 5.05154C16.9049 5.00746 16.9972 4.98099 17.092 4.97373C17.1867 4.96646 17.282 4.97857 17.3719 5.00931C17.4619 5.04004 17.5446 5.08876 17.6151 5.1525C17.6856 5.21624 17.7424 5.29366 17.782 5.38006C17.8216 5.46645 17.8432 5.56 17.8455 5.65501C17.8478 5.75003 17.8307 5.84451 17.7953 5.93272C17.76 6.02092 17.707 6.101 17.6396 6.16807Z" fill="#FF5069"/>
<path d="M16.4992 16.7699C16.233 17.0234 15.8773 17.1611 15.5098 17.1531C15.1424 17.1451 14.793 16.9921 14.538 16.7273C11.241 13.291 8.06896 9.7381 8.06896 9.7381C7.91675 9.56584 7.7258 9.43221 7.51183 9.3482C7.29786 9.2642 7.06699 9.23222 6.83825 9.25491C5.73828 9.36008 4.43082 8.85985 3.39907 7.82808C1.83296 6.25913 1.49189 4.05919 2.64017 2.91091C3.78846 1.76262 5.99124 2.10369 7.55735 3.6698C8.5891 4.70155 9.08934 6.00901 8.98418 7.10898C8.96241 7.33765 8.9948 7.56824 9.07875 7.78206C9.1627 7.99588 9.29583 8.18691 9.46737 8.33969C11.5926 10.2286 14.6623 13.0839 16.4566 14.8088C16.5884 14.9346 16.694 15.0852 16.7675 15.252C16.841 15.4187 16.8808 15.5983 16.8848 15.7805C16.8887 15.9627 16.8567 16.1438 16.7906 16.3136C16.7244 16.4834 16.6254 16.6385 16.4992 16.7699Z" fill="#FF5069"/>
</svg>
