<svg width="20" height="20" viewBox="0 0 20 20" fill="none" xmlns="http://www.w3.org/2000/svg">
<path fill-rule="evenodd" clip-rule="evenodd" d="M16.7501 17H3.25039C2.00688 17 1 15.9563 1 14.6666C1 13.3768 3.27461 12.3325 3.25039 12.3325L8.87525 8.44446V7.66511C8.87525 7.02191 9.37847 6.49953 10.0013 6.49953C10.6221 6.49953 11.1252 5.97709 11.1252 5.33392C11.1252 4.68795 10.6221 4.16554 10.0013 4.16554C9.37847 4.16554 8.87525 4.68795 8.87525 5.33392H7.75028C7.75028 4.04416 8.75772 3 10.0013 3C11.2417 3 12.2492 4.04416 12.2492 5.33392C12.2492 6.21755 11.7668 6.97695 11.0682 7.37346C11.0923 7.46968 11.1252 7.56142 11.1252 7.66515V8.44216L16.7501 12.3326C16.7282 12.3326 19 13.3769 19 14.6666C19 15.9564 17.9938 17 16.7501 17ZM15.0626 13.5009L10.0013 9.99914L4.93785 13.5009C4.93785 13.5009 4.37437 13.7608 4.37437 14.0833C4.37437 14.4045 4.62809 14.6666 4.93785 14.6666H15.0626C15.3725 14.6666 15.6251 14.4045 15.6251 14.0833C15.6251 13.7608 15.0626 13.5009 15.0626 13.5009Z" fill="#FF5069"/>
</svg>
