<svg width="499" height="726" viewBox="0 0 499 726" fill="none" xmlns="http://www.w3.org/2000/svg">
<g clip-path="url(#clip0_6_9)">
<path fill-rule="evenodd" clip-rule="evenodd" d="M222.694 0C216.844 107.153 191.463 169.028 90.1824 282.853C73.8725 231.088 51.6278 220.803 0 239.057C35.2972 251.444 59.4379 268.254 38.6495 328.475C-55.2135 600.379 52.5591 708.489 222.694 724.47C392.829 740.451 513.486 631.402 452.751 390.521C476.476 387.981 496.001 385.046 498.762 368.622C501.523 352.198 479.895 346.738 452.751 328.475L485.879 282.853C467.667 260.226 446.255 264.321 414.102 282.853L406.739 226.283C369.931 226.283 358.824 255.408 360.728 291.978C315.794 286.809 291.374 286.499 253.982 306.577C331.069 304.433 294.471 410.594 303.674 425.193C312.877 439.792 342.324 414.243 351.526 385.046C358.888 452.566 327.601 505.487 265.025 501.837C217.174 494.537 196.928 467.164 213.492 425.193C236.771 385.775 247.339 358.519 235.578 328.475C223.269 353.76 207.971 363.147 191.407 354.023C174.843 344.899 375.452 125.916 222.694 0ZM368.09 328.475C369.225 319.474 360.62 311.068 351.526 312.051C344.939 312.763 340.306 316.64 338.642 323C336.216 332.281 345.622 342.518 355.207 341.249C362.259 340.316 367.207 335.475 368.09 328.475Z" fill="url(#paint0_linear_6_9)"/>
</g>
<defs>
<linearGradient id="paint0_linear_6_9" x1="249.5" y1="0" x2="249.5" y2="726" gradientUnits="userSpaceOnUse">
<stop stop-color="#FF0661"/>
<stop offset="1" stop-color="#FF397A"/>
</linearGradient>
<clipPath id="clip0_6_9">
<rect width="499" height="726" fill="white"/>
</clipPath>
</defs>
</svg>
