<svg width="20" height="20" viewBox="0 0 20 20" fill="none" xmlns="http://www.w3.org/2000/svg">
<path d="M18.6363 3.47524C18.6026 3.38773 18.525 3.32615 18.4341 3.31473C18.3434 3.30335 18.2535 3.34391 18.2002 3.42051C17.8844 3.87534 17.4698 4.02695 16.9897 4.20252C16.6025 4.34416 16.2021 4.4905 15.7694 4.80956C15.1574 5.26075 14.8775 5.87579 15.0171 6.45873L15.0021 6.47837C14.7466 6.09766 14.4685 5.74553 14.1751 5.4311C12.8023 3.96002 10.884 3.07561 8.91197 3.00471C8.82509 3.00158 8.7368 3 8.64955 3C6.44756 3 4.3399 4.0109 2.86706 5.77343C1.40192 7.52684 0.752527 9.80937 1.08546 12.0358C1.11329 12.2219 1.14812 12.4099 1.18908 12.5947C1.7306 15.0425 3.11369 16.9045 4.98375 17.7033C5.44473 17.9002 5.9097 18 6.36559 18C7.49826 18 8.48758 17.3779 9.07998 16.2931C9.30515 15.8803 9.45045 15.4535 9.51166 15.0243C9.54774 14.771 9.52308 14.5179 9.49916 14.2726C9.47453 14.0201 9.45128 13.7815 9.48849 13.5413C9.57379 12.9906 9.94834 12.6618 10.4905 12.6618C10.6447 12.6618 10.8023 12.6879 10.9597 12.7393C10.7754 13.0864 10.6081 13.4177 10.4619 13.7249C10.152 14.3758 9.93822 14.9149 9.82634 15.327C9.75738 15.5811 9.57416 16.2565 10.0209 16.575C10.1628 16.6761 10.3427 16.7118 10.5299 16.676C10.6986 16.6438 11.212 16.5459 12.6707 14.8404C13.0622 14.3828 13.4841 13.8531 13.9251 13.266C15.0571 12.8744 15.9381 11.9 16.1711 10.7803C16.2295 10.5005 16.2538 10.2009 16.2434 9.88978C16.6673 9.2171 17.039 8.58944 17.4131 7.9147C17.4203 7.90169 17.4274 7.88783 17.4344 7.87362C17.9774 7.7209 18.445 7.28696 18.7195 6.68013C19.1203 5.79448 19.0907 4.65624 18.6363 3.47524ZM12.5164 7.669C12.32 7.98929 11.9825 8.18052 11.6134 8.18052C11.4129 8.18052 11.2169 8.12228 11.0465 8.01205C10.8055 7.85621 10.638 7.61337 10.5749 7.32825C10.5119 7.04313 10.5606 6.7498 10.7124 6.50234C10.9088 6.18204 11.2464 5.99081 11.6155 5.99081C11.816 5.99081 12.012 6.04905 12.1824 6.15932C12.4233 6.31508 12.5908 6.55792 12.6539 6.84308C12.7169 7.12824 12.6681 7.42153 12.5164 7.669ZM13.9001 9.6525C14.439 8.83703 15.009 8.02643 15.5503 7.3054C15.6381 7.38679 15.7362 7.46629 15.8425 7.54203C16.0186 7.66754 16.2028 7.76459 16.391 7.83105C15.934 8.63372 15.4425 9.42896 14.8475 10.329C13.8699 11.8083 12.8533 13.1825 11.9851 14.1983C11.5002 14.7658 11.0758 15.2038 10.7488 15.4752C10.875 15.0605 11.1162 14.4915 11.4519 13.8172C12.0522 12.6115 12.9217 11.1324 13.9001 9.6525ZM4.43786 9.64548C4.2374 9.64548 4.04135 9.58724 3.87088 9.47697C3.62996 9.32117 3.46249 9.07841 3.39941 8.79321C3.33632 8.50805 3.38516 8.21471 3.53696 7.96725C3.73325 7.647 4.07085 7.45577 4.43994 7.45577C4.64045 7.45577 4.8365 7.51401 5.00692 7.62428C5.50427 7.94598 5.65411 8.62324 5.34106 9.13391C5.14455 9.45425 4.80692 9.64548 4.43786 9.64548ZM3.32041 12.0561C3.51679 11.7358 3.85434 11.5446 4.22348 11.5446C4.4239 11.5446 4.61991 11.6028 4.79042 11.7131C5.03134 11.8689 5.1988 12.1117 5.26189 12.3968C5.32502 12.6819 5.27618 12.9752 5.12434 13.2227C4.92804 13.5429 4.59045 13.7342 4.22135 13.7342C4.02089 13.7342 3.8248 13.676 3.65429 13.5657C3.41337 13.4099 3.24595 13.1671 3.1829 12.882C3.1199 12.5969 3.16878 12.3035 3.32041 12.0561ZM6.73436 5.55425C6.93074 5.23396 7.26833 5.04273 7.63743 5.04273C7.83781 5.04273 8.03386 5.10096 8.20428 5.21119C8.70167 5.53281 8.85151 6.21011 8.53842 6.72087C8.34195 7.04121 8.00436 7.23244 7.63526 7.23244C7.43484 7.23244 7.23879 7.1742 7.06837 7.06393C6.82749 6.90817 6.66006 6.66537 6.59698 6.38017C6.53381 6.09505 6.58264 5.80176 6.73436 5.55425Z" fill="white"/>
</svg>
