<svg width="20" height="20" viewBox="0 0 20 20" fill="none" xmlns="http://www.w3.org/2000/svg">
<path d="M13.2437 10.5582C12.4199 9.27307 11.0169 8.50572 9.49057 8.50572C7.96424 8.50572 6.56124 9.27307 5.7376 10.5582L3.75259 13.6548C3.42325 14.1686 3.27129 14.7622 3.31305 15.371C3.35481 15.9799 3.58652 16.547 3.98305 17.0113C4.37986 17.4751 4.90418 17.7922 5.49932 17.9282C6.09446 18.0643 6.70455 18.0062 7.26351 17.7605L7.30094 17.7439C8.70743 17.138 10.3146 17.1436 11.7175 17.7605C12.0794 17.9196 12.4628 18 12.8497 18C13.06 18 13.2716 17.9761 13.4813 17.9284C14.0764 17.7925 14.6007 17.4754 14.9977 17.0114C15.3943 16.5476 15.6262 15.9804 15.6681 15.3713C15.71 14.7622 15.558 14.1687 15.2287 13.6547L13.2437 10.5582Z" fill="#FF5069"/>
<path d="M4.28578 10.554C4.87631 10.3272 5.32494 9.85135 5.54897 9.21403C5.76225 8.60757 5.74479 7.9229 5.49967 7.286C5.2544 6.64952 4.80829 6.12994 4.24346 5.82281C3.65014 5.50031 2.99829 5.44779 2.40874 5.67503C1.22265 6.13106 0.678352 7.59677 1.19555 8.94306C1.6087 10.0146 2.5723 10.691 3.5465 10.691C3.79526 10.691 4.04471 10.6469 4.28578 10.554Z" fill="#FF5069"/>
<path d="M8.13876 8.12808C9.62151 8.12808 10.8279 6.75371 10.8279 5.06439C10.8279 3.37464 9.62151 2 8.13876 2C6.65615 2 5.44995 3.37464 5.44995 5.06439C5.44995 6.75371 6.65615 8.12808 8.13876 8.12808Z" fill="#FF5069"/>
<path d="M12.7802 8.88058H12.7803C13.0084 8.95628 13.2411 8.99245 13.4728 8.99245C14.5542 8.99245 15.608 8.2054 16.0101 6.99585C16.2417 6.29959 16.2264 5.56338 15.9672 4.92299C15.696 4.25257 15.1933 3.76595 14.5516 3.55267C13.9099 3.3394 13.2158 3.42837 12.5972 3.80296C12.0063 4.1608 11.5535 4.74142 11.3222 5.43768C10.834 6.90646 11.4881 8.45095 12.7802 8.88058Z" fill="#FF5069"/>
<path d="M18.4447 8.52317L18.4443 8.52275C17.4218 7.76741 15.8925 8.0948 15.0351 9.25295C14.1785 10.4117 14.3124 11.9694 15.3334 12.7253C15.7058 13.0012 16.1457 13.133 16.596 13.133C17.3808 13.133 18.1974 12.7324 18.7432 11.9958C19.5997 10.8371 19.4659 9.27935 18.4447 8.52317Z" fill="#FF5069"/>
</svg>
