<svg width="20" height="20" viewBox="0 0 20 20" fill="none" xmlns="http://www.w3.org/2000/svg">
<path d="M17.9071 10.4549L14.9428 14.1987C14.6504 14.5686 14.2538 14.7761 13.8401 14.7761H11.357V18H5.37261V16.4563C5.37261 15.945 5.0445 15.53 4.63961 15.53C4.23472 15.53 3.90611 15.945 3.90611 16.4563V18H2V16.431C2 13.341 3.98239 10.8353 6.42885 10.8353H13.1941L15.7012 7.66818C16.3105 6.89817 17.2977 6.89879 17.907 7.66818C18.5158 8.43757 18.5158 9.6849 17.9071 10.4549Z" fill="#FF5069"/>
<path d="M9.49969 3H9.49219C7.61324 3.00409 6.09094 4.5291 6.09094 6.40943C6.09094 8.28909 7.61324 9.81409 9.49219 9.81818H9.49969C11.3827 9.81818 12.9091 8.29181 12.9091 6.40943C12.9092 4.52637 11.3828 3 9.49969 3Z" fill="#FF5069"/>
</svg>
