<svg width="16" height="18" viewBox="0 0 16 18" fill="none" xmlns="http://www.w3.org/2000/svg">
<path d="M12.7 2.30001L14.14 0.86001C14.46 0.54001 14.23 0.0100098 13.79 0.0100098H7.5C7.22 0.0100098 7 0.23001 7 0.51001V6.80001C7 7.25001 7.54 7.47001 7.85 7.15001L9.3 5.70001C11.27 7.16001 12.55 9.48001 12.55 12.12C12.55 12.78 12.47 13.43 12.31 14.04C12.19 14.54 12.79 14.9 13.15 14.53C14.63 13 15.55 10.92 15.55 8.62001C15.55 6.11001 14.44 3.86001 12.7 2.30001Z" fill="#323232"/>
<path d="M8.15001 10.86L6.70001 12.3C4.73001 10.84 3.45001 8.52 3.45001 5.88C3.45001 5.22 3.53001 4.57 3.69001 3.96C3.81001 3.46 3.21001 3.1 2.85001 3.47C1.37001 5 0.450012 7.08 0.450012 9.38C0.450012 11.9 1.55001 14.15 3.29001 15.71L1.85001 17.15C1.53001 17.47 1.76001 18 2.20001 18H8.49001C8.77001 18 8.99001 17.78 8.99001 17.5V11.21C9.00001 10.77 8.46001 10.54 8.15001 10.86Z" fill="#323232"/>
</svg>
